# xmcd CD database file
#
# Track frame offsets:
#	150
#	39017
#	97690
#
# Disc length: 2364 seconds
#
# Revision: 0
# Processed by: cddbd v1.5.2PL0 Copyright (c) Steve Scherf et al.
# Submitted via: CDex 1.70beta2
#
DISCID=0f093a03
DTITLE=Toshiko Akiyoshi - In Japan
DYEAR=1970
DGENRE=Jazz
TTITLE0=Opus No. Zero
TTITLE1=Sweet And Lovely
TTITLE2=Long Yellow Road
EXTD=YEAR: 1970
EXTT0=
EXTT1=
EXTT2=
PLAYORDER=
